REM DIRINDEX 1\4,1\2\5,1\2\6,1\2\7,1\3\8,1\3\9,1\3\10,1\3\11
REM DIRNAME cjc108,folder01,folder02,folder03,folder04,folder05,folder06,folder07,folder08,folder09,folder10
TITLE ""
FILE "t_j_39.mp3" MP3
  TRACK 01 AUDIO
    TITLE "8:cjc108_2707"
    INDEX 01 00:00:00
  TRACK 02 AUDIO
    TITLE "0:"
    INDEX 01 00:03:04
  TRACK 03 AUDIO
    TITLE "9:cjc108_2708"
    INDEX 01 00:04:17
  TRACK 04 AUDIO
    TITLE "0:"
    INDEX 01 00:05:18
  TRACK 05 AUDIO
    TITLE "10:cjc108_2709"
    INDEX 01 00:05:20
  TRACK 06 AUDIO
    TITLE "0:"
    INDEX 01 00:06:20
  TRACK 07 AUDIO
    TITLE "9:cjc108_2710"
    INDEX 01 00:06:67
  TRACK 08 AUDIO
    TITLE "0:"
    INDEX 01 00:08:03
  TRACK 09 AUDIO
    TITLE "10:cjc108_2711"
    INDEX 01 00:08:05
  TRACK 10 AUDIO
    TITLE "0:"
    INDEX 01 00:09:12
  TRACK 11 AUDIO
    TITLE "9:cjc108_2712"
    INDEX 01 00:09:65
  TRACK 12 AUDIO
    TITLE "0:"
    INDEX 01 00:10:74
  TRACK 13 AUDIO
    TITLE "10:cjc108_2713"
    INDEX 01 00:11:09
  TRACK 14 AUDIO
    TITLE "0:"
    INDEX 01 00:12:14
  TRACK 15 AUDIO
    TITLE "11:cjc108_2714"
    INDEX 01 00:12:65
  TRACK 16 AUDIO
    TITLE "0:"
    INDEX 01 00:17:72
  TRACK 17 AUDIO
    TITLE "9:cjc108_2715"
    INDEX 01 00:19:50
  TRACK 18 AUDIO
    TITLE "0:"
    INDEX 01 00:20:55
  TRACK 19 AUDIO
    TITLE "10:cjc108_2716"
    INDEX 01 00:20:59
  TRACK 20 AUDIO
    TITLE "0:"
    INDEX 01 00:22:03
  TRACK 21 AUDIO
    TITLE "9:cjc108_2717"
    INDEX 01 00:22:54
  TRACK 22 AUDIO
    TITLE "0:"
    INDEX 01 00:23:65
  TRACK 23 AUDIO
    TITLE "10:cjc108_2718"
    INDEX 01 00:23:73
  TRACK 24 AUDIO
    TITLE "0:"
    INDEX 01 00:25:17
  TRACK 25 AUDIO
    TITLE "9:cjc108_2719"
    INDEX 01 00:25:72
  TRACK 26 AUDIO
    TITLE "0:"
    INDEX 01 00:27:30
  TRACK 27 AUDIO
    TITLE "10:cjc108_2720"
    INDEX 01 00:27:32
  TRACK 28 AUDIO
    TITLE "0:"
    INDEX 01 00:29:74
  TRACK 29 AUDIO
    TITLE "9:cjc108_2721"
    INDEX 01 00:30:57
  TRACK 30 AUDIO
    TITLE "0:"
    INDEX 01 00:32:01
  TRACK 31 AUDIO
    TITLE "10:cjc108_2722"
    INDEX 01 00:32:13
  TRACK 32 AUDIO
    TITLE "0:"
    INDEX 01 00:33:54
  TRACK 33 AUDIO
    TITLE "9:cjc108_2723"
    INDEX 01 00:34:30
  TRACK 34 AUDIO
    TITLE "0:"
    INDEX 01 00:36:03
  TRACK 35 AUDIO
    TITLE "10:cjc108_2724"
    INDEX 01 00:36:23
  TRACK 36 AUDIO
    TITLE "0:"
    INDEX 01 00:37:67
  TRACK 37 AUDIO
    TITLE "9:cjc108_2725"
    INDEX 01 00:38:43
  TRACK 38 AUDIO
    TITLE "0:"
    INDEX 01 00:39:52
  TRACK 39 AUDIO
    TITLE "10:cjc108_2726"
    INDEX 01 00:39:56
  TRACK 40 AUDIO
    TITLE "0:"
    INDEX 01 00:40:62
  TRACK 41 AUDIO
    TITLE "11:cjc108_2727"
    INDEX 01 00:41:42
  TRACK 42 AUDIO
    TITLE "0:"
    INDEX 01 00:51:40
  TRACK 43 AUDIO
    TITLE "9:cjc108_2728"
    INDEX 01 00:53:19
  TRACK 44 AUDIO
    TITLE "0:"
    INDEX 01 00:54:44
  TRACK 45 AUDIO
    TITLE "10:cjc108_2729"
    INDEX 01 00:54:56
  TRACK 46 AUDIO
    TITLE "0:"
    INDEX 01 00:55:42
  TRACK 47 AUDIO
    TITLE "11:cjc108_2730"
    INDEX 01 00:56:20
  TRACK 48 AUDIO
    TITLE "0:"
    INDEX 01 00:59:69
  TRACK 49 AUDIO
    TITLE "9:cjc108_2731"
    INDEX 01 01:01:50
  TRACK 50 AUDIO
    TITLE "0:"
    INDEX 01 01:02:71
  TRACK 51 AUDIO
    TITLE "10:cjc108_2732"
    INDEX 01 01:02:73
  TRACK 52 AUDIO
    TITLE "0:"
    INDEX 01 01:05:13
  TRACK 53 AUDIO
    TITLE "9:cjc108_2733"
    INDEX 01 01:05:64
  TRACK 54 AUDIO
    TITLE "0:"
    INDEX 01 01:07:00
  TRACK 55 AUDIO
    TITLE "10:cjc108_2734"
    INDEX 01 01:07:02
  TRACK 56 AUDIO
    TITLE "0:"
    INDEX 01 01:08:09
  TRACK 57 AUDIO
    TITLE "11:cjc108_2735"
    INDEX 01 01:08:62
  TRACK 58 AUDIO
    TITLE "0:"
    INDEX 01 01:15:48
  TRACK 59 AUDIO
    TITLE "9:cjc108_2736"
    INDEX 01 01:17:24
  TRACK 60 AUDIO
    TITLE "0:"
    INDEX 01 01:18:43
  TRACK 61 AUDIO
    TITLE "10:cjc108_2737"
    INDEX 01 01:18:54
  TRACK 62 AUDIO
    TITLE "0:"
    INDEX 01 01:21:14
  TRACK 63 AUDIO
    TITLE "11:cjc108_2738"
    INDEX 01 01:21:69
  TRACK 64 AUDIO
    TITLE "0:"
    INDEX 01 01:25:17
  TRACK 65 AUDIO
    TITLE "9:cjc108_2739"
    INDEX 01 01:26:72
  TRACK 66 AUDIO
    TITLE "0:"
    INDEX 01 01:28:29
  TRACK 67 AUDIO
    TITLE "10:cjc108_2740"
    INDEX 01 01:28:41
  TRACK 68 AUDIO
    TITLE "0:"
    INDEX 01 01:29:58
  TRACK 69 AUDIO
    TITLE "11:cjc108_2741"
    INDEX 01 01:30:30
  TRACK 70 AUDIO
    TITLE "0:"
    INDEX 01 01:36:37
